<svg xmlns="http://www.w3.org/2000/svg" viewBox="0 0 100 100">
  <rect width="100" height="100" rx="22" fill="#0d1117"/>
  <g fill="#e3b341">
    <path transform="matrix(0.08219,0,0,-0.08219,6.284,80.000)" d="M347 -10Q279 -10 239 28Q199 67 199 134L227 105H199V0H77V730H202V576L198 445H227L199 416Q199 483 239 522Q279 560 347 560Q430 560 480 503Q530 446 530 349V200Q530 104 480 47Q430 -10 347 -10ZM303 98Q351 98 378 126Q405 154 405 206V344Q405 396 378 424Q351 452 303 452Q256 452 229 423Q202 395 202 344V206Q202 155 229 127Q256 98 303 98Z"/>
    <path transform="matrix(0.06383,0,0,-0.06383,52.961,72.979)" d="M60 -110 410 830H540L190 -110Z"/>
  </g>
</svg>
