<?xml version="1.0" standalone="no"?>
<!DOCTYPE svg PUBLIC "-//W3C//DTD SVG 20010904//EN"
 "http://www.w3.org/TR/2001/REC-SVG-20010904/DTD/svg10.dtd">
<svg version="1.0" xmlns="http://www.w3.org/2000/svg"
 width="576.000000pt" height="576.000000pt" viewBox="0 0 576.000000 576.000000"
 preserveAspectRatio="xMidYMid meet">
<metadata>
Created by potrace 1.10, written by Peter Selinger 2001-2011
</metadata>
<g transform="translate(0.000000,576.000000) scale(0.100000,-0.100000)"
fill="#666666" stroke="none">
<path d="M2780 5548 c-47 -5 -139 -12 -205 -16 -66 -4 -130 -13 -142 -20 -12
-7 -46 -12 -75 -12 -32 0 -62 -6 -74 -15 -10 -8 -37 -15 -60 -15 -22 0 -49 -7
-60 -15 -10 -8 -34 -15 -53 -15 -19 0 -43 -7 -53 -17 -10 -9 -31 -16 -47 -15
-16 0 -35 -6 -42 -14 -6 -8 -24 -14 -39 -14 -15 0 -33 -7 -40 -15 -7 -8 -23
-15 -35 -15 -12 0 -28 -7 -35 -15 -7 -8 -19 -15 -26 -15 -8 0 -31 -9 -51 -20
-21 -11 -43 -20 -50 -20 -7 0 -13 -4 -13 -9 0 -5 -12 -12 -27 -16 -15 -3 -30
-10 -33 -13 -3 -4 -26 -17 -52 -30 -26 -13 -50 -27 -53 -33 -4 -5 -15 -9 -25
-9 -10 0 -23 -6 -27 -14 -4 -8 -27 -24 -50 -36 -24 -12 -43 -25 -43 -29 0 -3
-17 -15 -37 -26 -21 -11 -49 -31 -64 -45 -24 -24 -52 -44 -75 -56 -34 -16
-383 -365 -422 -421 -6 -10 -15 -25 -19 -33 -4 -8 -19 -26 -33 -40 -14 -14
-35 -42 -45 -62 -11 -21 -23 -38 -26 -38 -4 0 -17 -19 -29 -42 -12 -24 -28
-47 -36 -51 -8 -4 -14 -17 -14 -27 0 -10 -4 -21 -9 -25 -6 -3 -20 -27 -33 -53
-13 -26 -26 -49 -30 -52 -3 -3 -10 -18 -13 -33 -4 -15 -11 -27 -16 -27 -5 0
-9 -6 -9 -13 0 -7 -9 -29 -20 -50 -11 -20 -20 -43 -20 -51 0 -7 -7 -19 -15
-26 -8 -7 -15 -23 -15 -35 0 -12 -7 -28 -15 -35 -8 -7 -15 -25 -15 -40 0 -15
-7 -33 -15 -40 -8 -7 -15 -27 -15 -45 0 -18 -7 -38 -15 -45 -8 -7 -15 -29 -15
-49 0 -20 -7 -45 -15 -55 -8 -11 -15 -38 -15 -60 0 -23 -7 -50 -15 -60 -9 -12
-15 -42 -15 -74 0 -29 -5 -63 -12 -75 -7 -12 -16 -76 -20 -142 -4 -66 -11
-159 -15 -208 -5 -48 -5 -126 0 -175 4 -48 11 -141 15 -207 4 -66 13 -130 20
-142 7 -12 12 -46 12 -75 0 -32 6 -62 15 -74 8 -10 15 -37 15 -60 0 -22 7 -49
15 -60 8 -10 15 -35 15 -55 0 -20 7 -42 15 -49 8 -7 15 -27 15 -45 0 -18 7
-38 15 -45 8 -7 15 -25 15 -40 0 -15 7 -33 15 -40 8 -7 15 -23 15 -35 0 -12 7
-28 15 -35 8 -7 15 -19 15 -26 0 -8 9 -31 20 -51 11 -21 20 -43 20 -50 0 -7 4
-13 9 -13 5 0 12 -12 16 -27 3 -15 10 -30 13 -33 4 -3 17 -26 30 -52 13 -26
27 -50 33 -53 5 -4 9 -15 9 -25 0 -10 6 -23 14 -27 8 -4 24 -27 36 -51 12 -23
25 -42 29 -42 3 0 15 -17 26 -37 10 -21 31 -50 45 -64 24 -24 44 -51 56 -75 4
-9 147 -163 201 -217 82 -82 209 -196 235 -211 18 -11 44 -31 58 -45 14 -15
42 -35 63 -46 20 -11 37 -23 37 -26 0 -4 19 -17 42 -29 24 -12 47 -28 51 -36
4 -8 17 -14 27 -14 10 0 21 -4 25 -9 3 -6 27 -20 53 -33 26 -13 49 -26 52 -30
3 -3 18 -10 33 -13 15 -4 27 -11 27 -16 0 -5 6 -9 13 -9 7 0 29 -9 50 -20 20
-11 43 -20 51 -20 7 0 19 -7 26 -15 7 -8 23 -15 35 -15 12 0 28 -7 35 -15 7
-8 25 -15 40 -15 15 0 33 -7 40 -15 7 -8 27 -15 45 -15 18 0 38 -7 45 -15 7
-8 29 -15 49 -15 20 0 45 -7 55 -15 11 -8 38 -15 60 -15 23 0 50 -7 60 -15 12
-9 42 -15 74 -15 29 0 63 -5 75 -12 72 -40 802 -40 874 0 12 7 46 12 75 12 32
0 62 6 74 15 10 8 37 15 60 15 22 0 49 7 60 15 10 8 35 15 55 15 20 0 42 7 49
15 7 8 27 15 45 15 18 0 38 7 45 15 7 8 25 15 40 15 15 0 33 7 40 15 7 8 23
15 35 15 12 0 28 7 35 15 7 8 19 15 26 15 8 0 31 9 51 20 21 11 43 20 50 20 7
0 13 4 13 9 0 5 12 12 27 16 15 3 30 10 33 13 3 4 26 17 52 30 26 13 50 27 53
33 4 5 15 9 25 9 10 0 23 6 27 14 4 8 27 24 51 36 23 12 42 25 42 29 0 3 17
15 37 26 21 11 49 32 63 46 14 14 40 34 59 45 19 10 62 46 95 79 34 33 81 79
106 101 98 91 240 247 257 284 4 8 18 26 32 40 14 14 35 42 46 63 11 20 23 37
26 37 4 0 17 19 29 43 12 23 28 46 36 50 8 4 14 17 14 27 0 10 4 21 9 25 6 3
20 27 33 53 13 26 26 49 30 52 3 3 10 18 13 33 4 15 11 27 16 27 5 0 9 6 9 13
0 7 9 29 20 50 11 20 20 43 20 51 0 7 7 19 15 26 8 7 15 23 15 35 0 12 7 28
15 35 8 7 15 25 15 40 0 15 7 33 15 40 8 7 15 27 15 45 0 18 7 38 15 45 8 7
15 29 15 49 0 20 7 45 15 55 8 11 15 38 15 60 0 23 7 50 15 60 9 12 15 42 15
74 0 29 5 63 12 75 7 12 16 76 20 142 4 66 11 159 15 207 5 47 5 128 0 180 -4
51 -11 145 -15 208 -4 63 -13 125 -20 137 -7 12 -12 46 -12 75 0 32 -6 62 -15
74 -8 10 -15 37 -15 60 0 22 -7 49 -15 60 -8 10 -15 35 -15 55 0 20 -7 42 -15
49 -8 7 -15 27 -15 45 0 18 -7 38 -15 45 -8 7 -15 25 -15 40 0 15 -7 33 -15
40 -8 7 -15 23 -15 35 0 12 -7 28 -15 35 -8 7 -15 19 -15 26 0 8 -9 31 -20 51
-11 21 -20 43 -20 50 0 7 -4 13 -9 13 -5 0 -12 12 -16 27 -3 15 -10 30 -13 33
-4 3 -17 26 -30 52 -13 26 -27 50 -33 53 -5 4 -9 15 -9 25 0 10 -6 23 -14 27
-8 4 -24 27 -36 51 -12 23 -25 42 -29 42 -3 0 -15 17 -26 38 -10 20 -31 49
-45 63 -24 24 -44 51 -56 75 -4 9 -148 164 -201 217 -64 64 -209 197 -215 197
-5 0 -8 4 -8 9 0 5 -10 13 -21 16 -12 4 -34 19 -48 34 -14 14 -43 34 -63 44
-21 10 -38 22 -38 26 0 5 -19 19 -42 31 -24 12 -47 28 -51 36 -4 8 -17 14 -27
14 -10 0 -21 4 -25 9 -3 6 -27 20 -53 33 -26 13 -49 25 -52 28 -3 3 -27 15
-55 28 -27 13 -62 30 -77 38 -14 8 -31 14 -38 14 -6 0 -18 7 -26 15 -9 8 -26
15 -38 15 -13 0 -29 7 -36 15 -7 8 -25 15 -40 15 -15 0 -33 7 -40 15 -7 8 -27
15 -45 15 -18 0 -38 7 -45 15 -7 8 -29 15 -49 15 -20 0 -45 7 -55 15 -11 8
-38 15 -60 15 -23 0 -50 7 -60 15 -12 9 -42 15 -72 15 -28 0 -68 7 -87 15 -23
9 -68 15 -121 15 -47 0 -107 4 -133 9 -69 14 -166 17 -263 9z m610 -1376 c36
-7 72 -17 80 -21 9 -5 30 -12 48 -16 43 -9 135 -58 198 -105 99 -74 180 -191
220 -317 16 -47 19 -90 19 -229 0 -110 -4 -176 -11 -185 -6 -8 -14 -26 -18
-42 -19 -78 -134 -217 -212 -256 -24 -12 -44 -25 -44 -29 0 -4 19 -16 43 -27
112 -51 225 -171 279 -295 63 -142 74 -361 25 -525 -35 -121 -119 -259 -210
-346 -49 -47 -176 -139 -192 -139 -4 0 -21 -6 -38 -14 -18 -8 -57 -21 -87 -30
-138 -39 -176 -41 -905 -41 l-710 0 -3 1305 c-1 718 0 1311 3 1318 7 18 1421
13 1515 -6z"/>
<path d="M2430 3701 c-2 -31 0 -534 2 -535 2 0 176 2 388 5 329 5 391 8 428
22 77 31 131 75 132 108 0 8 6 21 13 27 20 21 16 189 -7 236 -45 95 -102 118
-326 136 -128 11 -630 11 -630 1z"/>
<path d="M2430 2690 c0 -3 -1 -151 -1 -330 l0 -325 363 0 c318 0 372 3 432 19
80 21 99 30 144 71 59 53 92 147 92 259 0 153 -50 231 -182 282 -35 14 -89 18
-298 21 -140 2 -321 4 -403 6 -81 1 -147 0 -147 -3z"/>
</g>
</svg>
